<svg id="svg" version="1.1" xmlns="http://www.w3.org/2000/svg" xmlns:xlink="http://www.w3.org/1999/xlink" width="400"
     height="240" viewBox="0, 0, 400,240">
    <g id="svgg">
        <path id="path0"
              d="M179.063 28.075 C 171.365 30.536,168.942 40.382,174.619 46.131 C 183.007 54.626,196.832 45.546,192.583 34.334 C 190.639 29.205,184.467 26.347,179.063 28.075 M224.638 27.878 C 218.732 29.265,215.058 36.448,217.272 42.277 C 220.692 51.277,233.229 51.890,237.380 43.260 C 241.439 34.821,233.888 25.707,224.638 27.878 M150.887 60.834 C 146.392 62.927,133.743 75.448,128.017 83.471 C 114.233 102.787,108.787 125.736,112.613 148.379 C 115.667 166.453,124.990 182.429,140.340 195.891 C 148.923 203.419,151.121 204.203,154.677 201.007 C 157.655 198.329,157.746 196.099,155.014 192.797 C 142.276 177.402,136.653 162.364,135.398 140.336 C 133.830 112.819,140.685 90.401,156.285 72.029 C 160.025 67.625,160.122 65.555,156.742 62.256 C 154.633 60.197,153.070 59.817,150.887 60.834 M256.062 61.231 C 254.083 61.656,251.262 64.084,250.672 65.870 C 250.076 67.678,250.533 68.767,253.664 72.989 C 264.887 88.126,270.374 102.444,272.022 120.888 C 274.583 149.545,268.100 173.573,253.112 190.971 C 248.245 196.620,247.943 198.304,251.167 201.802 C 253.668 204.515,255.833 204.255,260.646 200.665 C 282.904 184.065,296.345 158.088,296.334 131.693 C 296.324 105.925,286.891 85.917,265.906 67.155 C 259.703 61.609,258.284 60.755,256.062 61.231 M111.285 63.097 C 109.567 63.693,107.271 65.025,102.881 67.973 C 57.182 98.658,47.808 155.123,81.865 194.564 C 89.514 203.421,91.460 204.651,95.015 202.875 C 99.057 200.855,99.712 198.448,97.333 194.358 C 94.034 188.683,93.197 187.134,91.950 184.394 C 85.777 170.832,83.572 156.483,85.092 139.765 C 87.631 111.834,96.591 92.117,114.248 75.608 C 119.092 71.079,119.597 69.983,118.202 67.032 C 116.598 63.638,113.994 62.157,111.285 63.097 M296.124 63.855 C 293.498 64.479,290.478 68.188,290.874 70.302 C 291.156 71.801,291.831 72.775,295.070 76.351 C 307.283 89.832,314.125 103.415,317.626 121.128 C 323.223 149.446,319.101 174.373,305.654 193.517 C 301.695 199.153,301.536 200.766,304.641 203.787 C 308.132 207.183,309.917 206.566,316.939 199.537 C 340.425 176.028,348.813 144.467,339.820 113.445 C 335.213 97.555,324.579 82.713,309.724 71.444 C 300.679 64.582,298.405 63.313,296.124 63.855 M182.593 72.141 C 167.666 75.397,164.964 95.536,177.035 113.565 C 178.509 115.766,180.736 118.044,181.635 118.269 C 184.030 118.871,184.274 117.097,182.402 112.671 C 176.642 99.047,177.755 91.844,185.954 89.668 C 190.280 88.521,192.522 87.005,194.002 84.229 C 197.636 77.413,190.941 70.320,182.593 72.141 M222.329 72.101 C 214.774 73.829,212.460 81.620,217.983 86.734 C 219.539 88.174,221.099 88.911,224.691 89.903 C 232.092 91.947,233.092 99.379,227.694 112.228 C 224.922 118.826,227.018 120.778,231.268 115.557 C 238.623 106.523,242.087 93.748,239.715 84.402 C 237.655 76.288,229.439 70.474,222.329 72.101 "
              stroke="none" fill="#f4f4f4" fill-rule="evenodd"></path>
    </g>
</svg>